<?xml version="1.0" standalone="no"?>
<!DOCTYPE svg PUBLIC "-//W3C//DTD SVG 20010904//EN"
 "http://www.w3.org/TR/2001/REC-SVG-20010904/DTD/svg10.dtd">
<svg version="1.0" xmlns="http://www.w3.org/2000/svg"
 width="1280.000000pt" height="1278.000000pt" viewBox="0 0 1280.000000 1278.000000"
 preserveAspectRatio="xMidYMid meet">
<g transform="translate(0.000000,1278.000000) scale(0.100000,-0.100000)"
fill="#000000" stroke="none">
<path d="M6318 12775 c-3 -3 -115 -10 -249 -15 -637 -27 -1113 -111 -1679
-300 -1112 -370 -2098 -1051 -2881 -1990 -90 -107 -325 -417 -409 -538 -581
-836 -957 -1882 -1060 -2947 -41 -433 -46 -648 -21 -985 55 -738 165 -1262
388 -1860 413 -1102 1090 -2025 2033 -2772 758 -600 1703 -1047 2645 -1252
245 -54 390 -74 620 -85 116 -6 282 -16 370 -22 323 -23 965 12 1415 77 415
60 799 156 1140 284 207 78 524 216 720 314 1273 635 2319 1744 2915 3091 284
643 464 1360 505 2016 34 558 37 661 21 840 -6 57 -15 169 -21 249 -112 1498
-774 2959 -1815 4005 -486 488 -1012 879 -1585 1178 -717 374 -1540 614 -2335
682 -99 8 -234 19 -300 25 -125 11 -408 14 -417 5z m-182 -186 c99 -6 294 -14
434 -19 506 -17 979 -45 1085 -64 243 -44 355 -124 355 -254 0 -57 -22 -133
-52 -174 -40 -57 -257 -90 -455 -70 -109 12 -468 69 -678 108 -117 22 -351 29
-473 14 -53 -6 -176 -24 -272 -40 -364 -61 -526 -72 -685 -50 -88 13 -204 51
-272 90 -64 37 -67 55 -24 147 122 257 427 349 1037 312z m-1371 -320 c99
-104 129 -167 133 -285 3 -77 0 -102 -23 -169 -55 -165 -151 -297 -456 -630
-206 -225 -286 -322 -348 -422 -108 -176 -142 -224 -207 -293 -132 -140 -287
-242 -497 -328 -155 -64 -285 -102 -687 -201 -361 -90 -502 -132 -633 -193
-80 -36 -95 -40 -151 -36 -112 7 -198 92 -249 246 -56 169 -54 341 5 439 114
189 462 562 713 765 279 225 651 487 825 580 58 31 206 115 330 187 245 143
472 262 593 310 173 69 382 112 521 107 l59 -3 72 -74z m3781 -39 c192 -56
469 -167 669 -267 342 -172 805 -467 1015 -648 52 -44 194 -160 315 -257 319
-255 453 -382 572 -541 63 -84 134 -219 163 -312 41 -131 37 -332 -11 -516
-20 -78 -85 -142 -157 -154 -30 -5 -56 1 -118 25 -43 18 -286 101 -539 185
-525 174 -641 218 -850 320 -322 157 -594 367 -695 535 -55 93 -162 229 -349
443 -354 405 -464 592 -465 793 -1 85 2 96 37 166 27 56 55 92 105 140 74 70
168 130 192 123 8 -3 61 -18 116 -35z m-1819 -280 c158 -11 360 -24 448 -30
216 -13 347 -53 526 -161 117 -70 178 -119 313 -249 138 -134 272 -298 458
-559 179 -252 342 -471 416 -559 70 -83 81 -113 89 -232 15 -235 -106 -491
-392 -825 -42 -49 -161 -180 -264 -290 -206 -220 -308 -336 -383 -435 -49 -65
-49 -65 -111 -72 -34 -4 -633 -11 -1332 -16 l-1270 -9 -80 40 c-182 90 -332
204 -511 389 -238 246 -438 546 -663 995 -44 90 -81 171 -81 180 0 27 98 233
175 368 181 319 402 613 671 894 111 116 335 323 416 384 103 79 427 171 692
196 161 16 586 12 883 -9z m-3167 -1996 c92 -21 197 -75 282 -143 186 -149
318 -329 583 -796 175 -307 226 -392 306 -502 32 -45 59 -89 59 -99 0 -71
-374 -1170 -660 -1939 -45 -121 -102 -276 -126 -343 -61 -174 -101 -241 -208
-348 -180 -180 -371 -258 -911 -374 -245 -52 -434 -102 -527 -138 -132 -53
-167 -57 -245 -32 -148 49 -277 134 -408 272 -155 161 -260 320 -492 742 -179
325 -233 417 -316 539 l-60 88 7 107 c38 586 224 1227 536 1842 49 96 102 205
119 242 72 165 222 337 383 442 268 174 488 244 1413 449 47 11 205 5 265 -9z
m6083 -49 c187 -33 339 -93 767 -302 397 -195 568 -267 684 -289 45 -8 59 -26
183 -231 302 -499 515 -1076 608 -1643 20 -117 16 -190 -15 -331 -66 -297
-202 -592 -493 -1073 -268 -443 -327 -543 -397 -671 l-65 -120 -45 -8 c-74
-13 -245 9 -334 43 -117 45 -294 93 -551 150 -462 102 -622 149 -800 235 -149
72 -224 126 -281 202 -190 252 -285 490 -448 1128 -105 413 -151 557 -238 755
-95 215 -111 279 -112 445 0 180 23 274 115 457 88 176 177 297 483 658 110
129 236 285 281 345 87 117 133 156 238 206 124 57 261 72 420 44z m-8130 -34
c126 -78 105 -314 -59 -669 -56 -119 -139 -261 -230 -389 -172 -244 -241 -450
-354 -1063 -33 -179 -73 -375 -89 -436 -71 -266 -174 -482 -305 -634 -46 -54
-166 -140 -196 -140 -20 0 -83 65 -103 105 -30 60 -40 139 -34 267 6 135 20
214 102 543 30 121 61 261 70 310 30 167 35 190 106 410 202 628 357 978 584
1320 96 144 233 315 300 374 37 32 41 33 106 29 45 -4 79 -12 102 -27z m10215
-223 c483 -855 782 -1725 876 -2548 33 -283 42 -789 16 -805 -25 -15 -186 147
-262 264 -137 210 -201 398 -343 1008 -63 275 -114 459 -154 561 -11 27 -27
77 -35 109 -25 96 -79 220 -221 513 -151 310 -192 412 -225 553 -50 215 2 352
162 432 108 54 106 55 186 -87z m-4183 -1257 c44 -11 118 -40 165 -62 69 -34
101 -58 170 -128 115 -117 151 -187 196 -378 54 -233 105 -405 264 -888 166
-505 205 -629 249 -795 39 -147 91 -396 91 -437 0 -27 -15 -45 -117 -140 -283
-261 -501 -439 -1183 -968 -212 -164 -464 -363 -561 -440 -188 -151 -233 -179
-318 -195 -150 -28 -319 51 -558 262 -476 420 -474 418 -941 706 -161 99 -339
214 -395 255 -272 199 -447 407 -537 636 l-21 53 115 327 c64 179 174 495 247
701 72 206 169 476 216 600 90 237 90 237 122 395 29 138 76 232 160 315 80
80 160 123 288 157 85 22 124 26 303 30 113 3 320 -1 460 -8 454 -22 552 -21
825 5 322 32 632 31 760 -3z m4575 -1719 c224 -284 377 -619 442 -972 41 -223
27 -515 -36 -729 -24 -80 -199 -579 -284 -812 -206 -560 -420 -962 -677 -1274
-113 -136 -130 -151 -200 -169 -157 -40 -306 -29 -425 30 -81 41 -132 94 -173
182 -26 56 -31 80 -35 166 -4 103 -3 111 52 351 36 156 61 351 96 730 17 182
37 377 46 435 50 340 147 624 286 838 73 111 134 229 238 461 182 406 271 560
397 683 73 71 174 138 207 137 13 0 38 -22 66 -57z m-11357 -126 c184 -76 314
-232 614 -735 103 -174 213 -350 244 -391 97 -129 169 -293 214 -485 42 -183
50 -266 49 -535 -1 -219 -6 -306 -38 -615 -21 -198 -43 -436 -49 -530 l-12
-170 -65 -33 c-179 -89 -381 -75 -555 38 -81 53 -224 201 -293 305 -79 119
-184 337 -226 471 -21 66 -110 339 -198 608 -246 754 -291 951 -292 1301 -1
225 11 319 60 475 28 89 87 163 190 236 121 86 243 107 357 60z m8452 -1031
c120 -19 289 -67 589 -165 260 -85 446 -134 556 -145 78 -8 126 -34 211 -112
107 -100 168 -206 210 -368 20 -77 23 -114 23 -260 0 -213 -8 -274 -99 -730
-85 -427 -105 -557 -105 -694 0 -256 -151 -552 -420 -822 -133 -133 -270 -242
-485 -384 -195 -129 -759 -463 -854 -507 -104 -46 -216 -61 -436 -55 -322 8
-389 25 -1270 324 -159 54 -317 106 -350 115 -49 14 -70 27 -118 75 -139 141
-200 296 -216 553 -10 164 0 319 40 680 22 192 32 333 34 467 3 222 -10 190
134 348 183 200 388 371 827 690 532 385 642 473 859 682 72 70 153 144 180
166 65 52 198 116 288 138 91 22 279 24 402 4z m-4755 -330 c734 -530 1021
-741 1330 -980 58 -45 131 -96 163 -114 134 -76 248 -190 312 -313 106 -202
138 -419 123 -852 -10 -296 -14 -566 -9 -736 3 -128 0 -152 -18 -205 -71 -199
-243 -307 -604 -380 -67 -13 -237 -40 -377 -60 -268 -39 -434 -75 -541 -119
-65 -27 -238 -73 -364 -97 -42 -8 -139 -14 -240 -14 -212 0 -264 13 -490 125
-280 137 -540 304 -812 522 -200 161 -364 312 -629 580 l-231 234 -26 79 c-65
197 -101 404 -117 665 -16 252 0 573 53 1091 26 247 23 240 139 342 259 226
634 374 1178 467 245 41 660 100 685 96 11 -1 225 -150 475 -331z m-2689
-2311 c132 -60 252 -166 635 -564 82 -86 167 -172 189 -192 22 -20 75 -74 117
-120 133 -147 260 -232 686 -462 423 -227 581 -352 701 -550 63 -105 123 -324
100 -367 -21 -40 -40 -40 -165 0 -622 200 -1200 544 -1779 1061 -155 138 -509
500 -645 660 -189 220 -260 310 -260 327 0 53 109 183 185 220 66 32 145 27
236 -13z m9315 -345 c66 -21 165 -77 171 -96 2 -6 -41 -65 -95 -130 -603 -719
-1407 -1305 -2287 -1668 -77 -31 -179 -75 -227 -96 -103 -46 -169 -64 -202
-55 -34 8 -50 84 -44 204 4 80 8 99 42 168 78 158 234 279 566 441 427 208
518 256 595 312 44 33 108 76 142 97 102 61 215 157 418 354 277 269 370 346
508 420 153 81 270 95 413 49z m-4396 -942 c248 -44 453 -100 949 -262 179
-58 330 -105 336 -105 6 0 44 -16 84 -35 99 -48 201 -148 226 -223 28 -85 18
-171 -30 -268 -71 -144 -261 -312 -473 -418 -92 -46 -256 -102 -342 -115 -90
-15 -224 -13 -293 3 -49 11 -75 11 -169 0 -230 -28 -543 -36 -782 -20 -122 9
-302 20 -401 26 -367 21 -557 46 -763 100 -304 79 -572 236 -663 389 -131 218
-114 384 51 501 128 89 310 143 725 215 337 58 473 88 595 131 247 87 359 104
645 99 133 -2 253 -9 305 -18z"/>
</g>
</svg>
